<?xml version="1.0" encoding="utf-8" ?>
<svg baseProfile="full" height="24" version="1.1" viewBox="0 0 30 24" width="30" xmlns="http://www.w3.org/2000/svg" xmlns:ev="http://www.w3.org/2001/xml-events" xmlns:xlink="http://www.w3.org/1999/xlink"><defs /><rect fill="#e1dfe6" height="1" stroke="none" width="1" x="6" y="2" /><rect fill="#c1bdc6" height="1" stroke="none" width="1" x="7" y="2" /><rect fill="#dedde4" height="1" stroke="none" width="1" x="8" y="2" /><rect fill="#f9f5fb" height="1" stroke="none" width="1" x="18" y="2" /><rect fill="#f8f5fa" height="1" stroke="none" width="1" x="19" y="2" /><rect fill="#bdb8bd" height="1" stroke="none" width="1" x="5" y="3" /><rect fill="#8a6c32" height="1" stroke="none" width="1" x="6" y="3" /><rect fill="#bb951d" height="1" stroke="none" width="1" x="7" y="3" /><rect fill="#8e6e2f" height="1" stroke="none" width="1" x="8" y="3" /><rect fill="#afaab0" height="1" stroke="none" width="1" x="9" y="3" /><rect fill="#fcfafe" height="1" stroke="none" width="1" x="16" y="3" /><rect fill="#b4acb4" height="1" stroke="none" width="1" x="17" y="3" /><rect fill="#66714b" height="1" stroke="none" width="1" x="18" y="3" /><rect fill="#68734d" height="1" stroke="none" width="1" x="19" y="3" /><rect fill="#a69ca5" height="1" stroke="none" width="1" x="20" y="3" /><rect fill="#b1aaae" height="1" stroke="none" width="1" x="21" y="3" /><rect fill="#d3ced3" height="1" stroke="none" width="1" x="22" y="3" /><rect fill="#7b6b60" height="1" stroke="none" width="1" x="5" y="4" /><rect fill="#ebb718" height="1" stroke="none" width="1" x="6" y="4" /><rect fill="#ddaf22" height="1" stroke="none" width="1" x="7" y="4" /><rect fill="#ebb91c" height="1" stroke="none" width="1" x="8" y="4" /><rect fill="#785f3a" height="1" stroke="none" width="1" x="9" y="4" /><rect fill="#e8e8ee" height="1" stroke="none" width="1" x="10" y="4" /><rect fill="#beb9bd" height="1" stroke="none" width="1" x="13" y="4" /><rect fill="#afa8ad" height="1" stroke="none" width="1" x="14" y="4" /><rect fill="#c7c3c6" height="1" stroke="none" width="1" x="15" y="4" /><rect fill="#696f53" height="1" stroke="none" width="1" x="16" y="4" /><rect fill="#556b2e" height="1" stroke="none" width="1" x="17" y="4" /><rect fill="#75bc27" height="1" stroke="none" width="1" x="18" y="4" /><rect fill="#77be25" height="1" stroke="none" width="1" x="19" y="4" /><rect fill="#5a7e21" height="1" stroke="none" width="1" x="20" y="4" /><rect fill="#659c22" height="1" stroke="none" width="1" x="21" y="4" /><rect fill="#4f5d2f" height="1" stroke="none" width="1" x="22" y="4" /><rect fill="#cdc4d0" height="1" stroke="none" width="1" x="23" y="4" /><rect fill="#8d8283" height="1" stroke="none" width="1" x="5" y="5" /><rect fill="#cd9f1a" height="1" stroke="none" width="1" x="6" y="5" /><rect fill="#b89424" height="1" stroke="none" width="1" x="7" y="5" /><rect fill="#937226" height="1" stroke="none" width="1" x="8" y="5" /><rect fill="#9c771c" height="1" stroke="none" width="1" x="9" y="5" /><rect fill="#a29ba1" height="1" stroke="none" width="1" x="10" y="5" /><rect fill="#f0f4f6" height="1" stroke="none" width="1" x="11" y="5" /><rect fill="#cccfd3" height="1" stroke="none" width="1" x="12" y="5" /><rect fill="#605862" height="1" stroke="none" width="1" x="13" y="5" /><rect fill="#cacbd1" height="1" stroke="none" width="1" x="14" y="5" /><rect fill="#61605b" height="1" stroke="none" width="1" x="15" y="5" /><rect fill="#69a821" height="1" stroke="none" width="1" x="16" y="5" /><rect fill="#7cc62c" height="1" stroke="none" width="1" x="17" y="5" /><rect fill="#70aa2b" height="1" stroke="none" width="1" x="18" y="5" /><rect fill="#47613e" height="1" stroke="none" width="1" x="19" y="5" /><rect fill="#46684d" height="1" stroke="none" width="1" x="20" y="5" /><rect fill="#5d842e" height="1" stroke="none" width="1" x="21" y="5" /><rect fill="#6da728" height="1" stroke="none" width="1" x="22" y="5" /><rect fill="#58613c" height="1" stroke="none" width="1" x="23" y="5" /><rect fill="#c4bec2" height="1" stroke="none" width="1" x="24" y="5" /><rect fill="#d1cfd9" height="1" stroke="none" width="1" x="5" y="6" /><rect fill="#8b6b2a" height="1" stroke="none" width="1" x="6" y="6" /><rect fill="#eec020" height="1" stroke="none" width="1" x="7" y="6" /><rect fill="#a68125" height="1" stroke="none" width="1" x="8" y="6" /><rect fill="#d2a520" height="1" stroke="none" width="1" x="9" y="6" /><rect fill="#6c573c" height="1" stroke="none" width="1" x="10" y="6" /><rect fill="#80464e" height="1" stroke="none" width="1" x="11" y="6" /><rect fill="#9a3030" height="1" stroke="none" width="1" x="12" y="6" /><rect fill="#69282e" height="1" stroke="none" width="1" x="13" y="6" /><rect fill="#9f3635" height="1" stroke="none" width="1" x="14" y="6" /><rect fill="#62252e" height="1" stroke="none" width="1" x="15" y="6" /><rect fill="#475a2a" height="1" stroke="none" width="1" x="16" y="6" /><rect fill="#7cc42d" height="1" stroke="none" width="1" x="17" y="6" /><rect fill="#6da228" height="1" stroke="none" width="1" x="18" y="6" /><rect fill="#2c3656" height="1" stroke="none" width="1" x="19" y="6" /><rect fill="#244282" height="1" stroke="none" width="1" x="20" y="6" /><rect fill="#4b5d2d" height="1" stroke="none" width="1" x="21" y="6" /><rect fill="#80cd2c" height="1" stroke="none" width="1" x="22" y="6" /><rect fill="#5e951a" height="1" stroke="none" width="1" x="23" y="6" /><rect fill="#837a7d" height="1" stroke="none" width="1" x="24" y="6" /><rect fill="#7e706b" height="1" stroke="none" width="1" x="6" y="7" /><rect fill="#d9a81b" height="1" stroke="none" width="1" x="7" y="7" /><rect fill="#c79e23" height="1" stroke="none" width="1" x="8" y="7" /><rect fill="#ad8a25" height="1" stroke="none" width="1" x="9" y="7" /><rect fill="#774a26" height="1" stroke="none" width="1" x="10" y="7" /><rect fill="#db322d" height="1" stroke="none" width="1" x="11" y="7" /><rect fill="#f33c31" height="1" stroke="none" width="1" x="12" y="7" /><rect fill="#ea3b31" height="1" stroke="none" width="1" x="13" y="7" /><rect fill="#f33c31" height="1" stroke="none" width="1" x="14" y="7" /><rect fill="#e03531" height="1" stroke="none" width="1" x="15" y="7" /><rect fill="#534429" height="1" stroke="none" width="1" x="16" y="7" /><rect fill="#76c229" height="1" stroke="none" width="1" x="17" y="7" /><rect fill="#6fa424" height="1" stroke="none" width="1" x="18" y="7" /><rect fill="#304d6d" height="1" stroke="none" width="1" x="19" y="7" /><rect fill="#246ec7" height="1" stroke="none" width="1" x="20" y="7" /><rect fill="#50682b" height="1" stroke="none" width="1" x="21" y="7" /><rect fill="#618f25" height="1" stroke="none" width="1" x="22" y="7" /><rect fill="#6e6a61" height="1" stroke="none" width="1" x="23" y="7" /><rect fill="#dfdcdf" height="1" stroke="none" width="1" x="24" y="7" /><rect fill="#c2c0cc" height="1" stroke="none" width="1" x="6" y="8" /><rect fill="#987725" height="1" stroke="none" width="1" x="7" y="8" /><rect fill="#c59f23" height="1" stroke="none" width="1" x="8" y="8" /><rect fill="#876c26" height="1" stroke="none" width="1" x="9" y="8" /><rect fill="#4d2f2a" height="1" stroke="none" width="1" x="10" y="8" /><rect fill="#d03432" height="1" stroke="none" width="1" x="11" y="8" /><rect fill="#ec3a33" height="1" stroke="none" width="1" x="12" y="8" /><rect fill="#ea3a33" height="1" stroke="none" width="1" x="13" y="8" /><rect fill="#ec3a33" height="1" stroke="none" width="1" x="14" y="8" /><rect fill="#cc2f2c" height="1" stroke="none" width="1" x="15" y="8" /><rect fill="#79646b" height="1" stroke="none" width="1" x="16" y="8" /><rect fill="#a2d66f" height="1" stroke="none" width="1" x="17" y="8" /><rect fill="#3e563b" height="1" stroke="none" width="1" x="18" y="8" /><rect fill="#247ddc" height="1" stroke="none" width="1" x="19" y="8" /><rect fill="#2594fe" height="1" stroke="none" width="1" x="20" y="8" /><rect fill="#27568b" height="1" stroke="none" width="1" x="21" y="8" /><rect fill="#5e5451" height="1" stroke="none" width="1" x="22" y="8" /><rect fill="#f6f3f9" height="1" stroke="none" width="1" x="23" y="8" /><rect fill="#908283" height="1" stroke="none" width="1" x="6" y="9" /><rect fill="#684326" height="1" stroke="none" width="1" x="7" y="9" /><rect fill="#936722" height="1" stroke="none" width="1" x="8" y="9" /><rect fill="#845923" height="1" stroke="none" width="1" x="9" y="9" /><rect fill="#5d3823" height="1" stroke="none" width="1" x="10" y="9" /><rect fill="#7a3a26" height="1" stroke="none" width="1" x="11" y="9" /><rect fill="#903e27" height="1" stroke="none" width="1" x="12" y="9" /><rect fill="#8e3d27" height="1" stroke="none" width="1" x="13" y="9" /><rect fill="#8f3d27" height="1" stroke="none" width="1" x="14" y="9" /><rect fill="#7b3922" height="1" stroke="none" width="1" x="15" y="9" /><rect fill="#7f5d4b" height="1" stroke="none" width="1" x="16" y="9" /><rect fill="#826847" height="1" stroke="none" width="1" x="17" y="9" /><rect fill="#2e4464" height="1" stroke="none" width="1" x="18" y="9" /><rect fill="#2593fd" height="1" stroke="none" width="1" x="19" y="9" /><rect fill="#2593fa" height="1" stroke="none" width="1" x="20" y="9" /><rect fill="#2375cb" height="1" stroke="none" width="1" x="21" y="9" /><rect fill="#614745" height="1" stroke="none" width="1" x="22" y="9" /><rect fill="#968785" height="1" stroke="none" width="1" x="23" y="9" /><rect fill="#fafbfc" height="1" stroke="none" width="1" x="24" y="9" /><rect fill="#edeff4" height="1" stroke="none" width="1" x="5" y="10" /><rect fill="#7a5135" height="1" stroke="none" width="1" x="6" y="10" /><rect fill="#f58a0e" height="1" stroke="none" width="1" x="7" y="10" /><rect fill="#f38a13" height="1" stroke="none" width="1" x="8" y="10" /><rect fill="#bf6f19" height="1" stroke="none" width="1" x="9" y="10" /><rect fill="#9a5d1d" height="1" stroke="none" width="1" x="10" y="10" /><rect fill="#e78614" height="1" stroke="none" width="1" x="11" y="10" /><rect fill="#f18c12" height="1" stroke="none" width="1" x="12" y="10" /><rect fill="#f08c12" height="1" stroke="none" width="1" x="13" y="10" /><rect fill="#ec8a13" height="1" stroke="none" width="1" x="14" y="10" /><rect fill="#9f611c" height="1" stroke="none" width="1" x="15" y="10" /><rect fill="#b06616" height="1" stroke="none" width="1" x="16" y="10" /><rect fill="#e57c09" height="1" stroke="none" width="1" x="17" y="10" /><rect fill="#3e4963" height="1" stroke="none" width="1" x="18" y="10" /><rect fill="#2391fa" height="1" stroke="none" width="1" x="19" y="10" /><rect fill="#2593fa" height="1" stroke="none" width="1" x="20" y="10" /><rect fill="#2072c9" height="1" stroke="none" width="1" x="21" y="10" /><rect fill="#965314" height="1" stroke="none" width="1" x="22" y="10" /><rect fill="#7f5331" height="1" stroke="none" width="1" x="23" y="10" /><rect fill="#eceef3" height="1" stroke="none" width="1" x="24" y="10" /><rect fill="#e6e8ee" height="1" stroke="none" width="1" x="5" y="11" /><rect fill="#825532" height="1" stroke="none" width="1" x="6" y="11" /><rect fill="#fa8e0f" height="1" stroke="none" width="1" x="7" y="11" /><rect fill="#fd9012" height="1" stroke="none" width="1" x="8" y="11" /><rect fill="#735021" height="1" stroke="none" width="1" x="9" y="11" /><rect fill="#27432c" height="1" stroke="none" width="1" x="10" y="11" /><rect fill="#d57816" height="1" stroke="none" width="1" x="11" y="11" /><rect fill="#fe9112" height="1" stroke="none" width="1" x="12" y="11" /><rect fill="#fc8f12" height="1" stroke="none" width="1" x="13" y="11" /><rect fill="#ec8413" height="1" stroke="none" width="1" x="14" y="11" /><rect fill="#3a4429" height="1" stroke="none" width="1" x="15" y="11" /><rect fill="#574a25" height="1" stroke="none" width="1" x="16" y="11" /><rect fill="#eb800d" height="1" stroke="none" width="1" x="17" y="11" /><rect fill="#404a63" height="1" stroke="none" width="1" x="18" y="11" /><rect fill="#2391fa" height="1" stroke="none" width="1" x="19" y="11" /><rect fill="#2593fa" height="1" stroke="none" width="1" x="20" y="11" /><rect fill="#1f72c8" height="1" stroke="none" width="1" x="21" y="11" /><rect fill="#9c5918" height="1" stroke="none" width="1" x="22" y="11" /><rect fill="#88582f" height="1" stroke="none" width="1" x="23" y="11" /><rect fill="#e5e7ed" height="1" stroke="none" width="1" x="24" y="11" /><rect fill="#dee0e6" height="1" stroke="none" width="1" x="5" y="12" /><rect fill="#86542a" height="1" stroke="none" width="1" x="6" y="12" /><rect fill="#fb8e10" height="1" stroke="none" width="1" x="7" y="12" /><rect fill="#fc8f12" height="1" stroke="none" width="1" x="8" y="12" /><rect fill="#735221" height="1" stroke="none" width="1" x="9" y="12" /><rect fill="#2d502c" height="1" stroke="none" width="1" x="10" y="12" /><rect fill="#bb6618" height="1" stroke="none" width="1" x="11" y="12" /><rect fill="#e47f14" height="1" stroke="none" width="1" x="12" y="12" /><rect fill="#e47e14" height="1" stroke="none" width="1" x="13" y="12" /><rect fill="#d37216" height="1" stroke="none" width="1" x="14" y="12" /><rect fill="#3c4c29" height="1" stroke="none" width="1" x="15" y="12" /><rect fill="#5a4e25" height="1" stroke="none" width="1" x="16" y="12" /><rect fill="#ea7f0d" height="1" stroke="none" width="1" x="17" y="12" /><rect fill="#3f4a63" height="1" stroke="none" width="1" x="18" y="12" /><rect fill="#2291fa" height="1" stroke="none" width="1" x="19" y="12" /><rect fill="#2593fb" height="1" stroke="none" width="1" x="20" y="12" /><rect fill="#1f72ca" height="1" stroke="none" width="1" x="21" y="12" /><rect fill="#9c5919" height="1" stroke="none" width="1" x="22" y="12" /><rect fill="#8c5729" height="1" stroke="none" width="1" x="23" y="12" /><rect fill="#dee0e6" height="1" stroke="none" width="1" x="24" y="12" /><rect fill="#d6d7de" height="1" stroke="none" width="1" x="5" y="13" /><rect fill="#8b5424" height="1" stroke="none" width="1" x="6" y="13" /><rect fill="#fc8f10" height="1" stroke="none" width="1" x="7" y="13" /><rect fill="#fc9012" height="1" stroke="none" width="1" x="8" y="13" /><rect fill="#a5611b" height="1" stroke="none" width="1" x="9" y="13" /><rect fill="#2c592d" height="1" stroke="none" width="1" x="10" y="13" /><rect fill="#36612d" height="1" stroke="none" width="1" x="11" y="13" /><rect fill="#3b5e2c" height="1" stroke="none" width="1" x="12" y="13" /><rect fill="#3d5f2b" height="1" stroke="none" width="1" x="13" y="13" /><rect fill="#395e2c" height="1" stroke="none" width="1" x="14" y="13" /><rect fill="#2a5b2e" height="1" stroke="none" width="1" x="15" y="13" /><rect fill="#8b571f" height="1" stroke="none" width="1" x="16" y="13" /><rect fill="#ee840c" height="1" stroke="none" width="1" x="17" y="13" /><rect fill="#3c4862" height="1" stroke="none" width="1" x="18" y="13" /><rect fill="#1d8df9" height="1" stroke="none" width="1" x="19" y="13" /><rect fill="#1e8efa" height="1" stroke="none" width="1" x="20" y="13" /><rect fill="#1c70c9" height="1" stroke="none" width="1" x="21" y="13" /><rect fill="#9a591a" height="1" stroke="none" width="1" x="22" y="13" /><rect fill="#925823" height="1" stroke="none" width="1" x="23" y="13" /><rect fill="#d6d7df" height="1" stroke="none" width="1" x="24" y="13" /><rect fill="#cdced6" height="1" stroke="none" width="1" x="5" y="14" /><rect fill="#91551e" height="1" stroke="none" width="1" x="6" y="14" /><rect fill="#fd9010" height="1" stroke="none" width="1" x="7" y="14" /><rect fill="#f68c12" height="1" stroke="none" width="1" x="8" y="14" /><rect fill="#f68c12" height="1" stroke="none" width="1" x="9" y="14" /><rect fill="#ad661b" height="1" stroke="none" width="1" x="10" y="14" /><rect fill="#765b22" height="1" stroke="none" width="1" x="11" y="14" /><rect fill="#725c23" height="1" stroke="none" width="1" x="12" y="14" /><rect fill="#715c23" height="1" stroke="none" width="1" x="13" y="14" /><rect fill="#745c23" height="1" stroke="none" width="1" x="14" y="14" /><rect fill="#a1621c" height="1" stroke="none" width="1" x="15" y="14" /><rect fill="#f18913" height="1" stroke="none" width="1" x="16" y="14" /><rect fill="#f78c11" height="1" stroke="none" width="1" x="17" y="14" /><rect fill="#67442d" height="1" stroke="none" width="1" x="18" y="14" /><rect fill="#594d4d" height="1" stroke="none" width="1" x="19" y="14" /><rect fill="#6a574c" height="1" stroke="none" width="1" x="20" y="14" /><rect fill="#433b45" height="1" stroke="none" width="1" x="21" y="14" /><rect fill="#c37016" height="1" stroke="none" width="1" x="22" y="14" /><rect fill="#97581e" height="1" stroke="none" width="1" x="23" y="14" /><rect fill="#cdced5" height="1" stroke="none" width="1" x="24" y="14" /><rect fill="#c4c4cc" height="1" stroke="none" width="1" x="5" y="15" /><rect fill="#9a591a" height="1" stroke="none" width="1" x="6" y="15" /><rect fill="#fd9011" height="1" stroke="none" width="1" x="7" y="15" /><rect fill="#f58c12" height="1" stroke="none" width="1" x="8" y="15" /><rect fill="#f68c12" height="1" stroke="none" width="1" x="9" y="15" /><rect fill="#fc8f11" height="1" stroke="none" width="1" x="10" y="15" /><rect fill="#fc8e11" height="1" stroke="none" width="1" x="11" y="15" /><rect fill="#fb8d11" height="1" stroke="none" width="1" x="12" y="15" /><rect fill="#fb8d11" height="1" stroke="none" width="1" x="13" y="15" /><rect fill="#fc8d11" height="1" stroke="none" width="1" x="14" y="15" /><rect fill="#fc8f11" height="1" stroke="none" width="1" x="15" y="15" /><rect fill="#f68d12" height="1" stroke="none" width="1" x="16" y="15" /><rect fill="#fd9012" height="1" stroke="none" width="1" x="17" y="15" /><rect fill="#91541c" height="1" stroke="none" width="1" x="18" y="15" /><rect fill="#d07511" height="1" stroke="none" width="1" x="19" y="15" /><rect fill="#ff920b" height="1" stroke="none" width="1" x="20" y="15" /><rect fill="#874d1b" height="1" stroke="none" width="1" x="21" y="15" /><rect fill="#e18114" height="1" stroke="none" width="1" x="22" y="15" /><rect fill="#9c5a19" height="1" stroke="none" width="1" x="23" y="15" /><rect fill="#c3c3cb" height="1" stroke="none" width="1" x="24" y="15" /><rect fill="#bbbac2" height="1" stroke="none" width="1" x="5" y="16" /><rect fill="#a25c16" height="1" stroke="none" width="1" x="6" y="16" /><rect fill="#fd9011" height="1" stroke="none" width="1" x="7" y="16" /><rect fill="#f58c12" height="1" stroke="none" width="1" x="8" y="16" /><rect fill="#f58c12" height="1" stroke="none" width="1" x="9" y="16" /><rect fill="#f58c12" height="1" stroke="none" width="1" x="10" y="16" /><rect fill="#f58c12" height="1" stroke="none" width="1" x="11" y="16" /><rect fill="#f58c12" height="1" stroke="none" width="1" x="12" y="16" /><rect fill="#f58c12" height="1" stroke="none" width="1" x="13" y="16" /><rect fill="#f58c12" height="1" stroke="none" width="1" x="14" y="16" /><rect fill="#f58c12" height="1" stroke="none" width="1" x="15" y="16" /><rect fill="#f58c12" height="1" stroke="none" width="1" x="16" y="16" /><rect fill="#fc9012" height="1" stroke="none" width="1" x="17" y="16" /><rect fill="#8f541e" height="1" stroke="none" width="1" x="18" y="16" /><rect fill="#cb7517" height="1" stroke="none" width="1" x="19" y="16" /><rect fill="#ff9211" height="1" stroke="none" width="1" x="20" y="16" /><rect fill="#854f1f" height="1" stroke="none" width="1" x="21" y="16" /><rect fill="#e08114" height="1" stroke="none" width="1" x="22" y="16" /><rect fill="#a55d15" height="1" stroke="none" width="1" x="23" y="16" /><rect fill="#b9b8c1" height="1" stroke="none" width="1" x="24" y="16" /><rect fill="#b1afb7" height="1" stroke="none" width="1" x="5" y="17" /><rect fill="#aa6013" height="1" stroke="none" width="1" x="6" y="17" /><rect fill="#fd9011" height="1" stroke="none" width="1" x="7" y="17" /><rect fill="#f58c12" height="1" stroke="none" width="1" x="8" y="17" /><rect fill="#f58c12" height="1" stroke="none" width="1" x="9" y="17" /><rect fill="#f58c12" height="1" stroke="none" width="1" x="10" y="17" /><rect fill="#f58c12" height="1" stroke="none" width="1" x="11" y="17" /><rect fill="#f58c12" height="1" stroke="none" width="1" x="12" y="17" /><rect fill="#f58c12" height="1" stroke="none" width="1" x="13" y="17" /><rect fill="#f58c12" height="1" stroke="none" width="1" x="14" y="17" /><rect fill="#f58c12" height="1" stroke="none" width="1" x="15" y="17" /><rect fill="#f58c12" height="1" stroke="none" width="1" x="16" y="17" /><rect fill="#fd9012" height="1" stroke="none" width="1" x="17" y="17" /><rect fill="#8f541e" height="1" stroke="none" width="1" x="18" y="17" /><rect fill="#ca7517" height="1" stroke="none" width="1" x="19" y="17" /><rect fill="#ff9211" height="1" stroke="none" width="1" x="20" y="17" /><rect fill="#844e1f" height="1" stroke="none" width="1" x="21" y="17" /><rect fill="#e18115" height="1" stroke="none" width="1" x="22" y="17" /><rect fill="#ad6113" height="1" stroke="none" width="1" x="23" y="17" /><rect fill="#b0adb6" height="1" stroke="none" width="1" x="24" y="17" /><rect fill="#a8a4ac" height="1" stroke="none" width="1" x="5" y="18" /><rect fill="#b46411" height="1" stroke="none" width="1" x="6" y="18" /><rect fill="#fc9012" height="1" stroke="none" width="1" x="7" y="18" /><rect fill="#f58c12" height="1" stroke="none" width="1" x="8" y="18" /><rect fill="#f58c12" height="1" stroke="none" width="1" x="9" y="18" /><rect fill="#f58c12" height="1" stroke="none" width="1" x="10" y="18" /><rect fill="#f58c12" height="1" stroke="none" width="1" x="11" y="18" /><rect fill="#f58c12" height="1" stroke="none" width="1" x="12" y="18" /><rect fill="#f58c12" height="1" stroke="none" width="1" x="13" y="18" /><rect fill="#f58c12" height="1" stroke="none" width="1" x="14" y="18" /><rect fill="#f58c12" height="1" stroke="none" width="1" x="15" y="18" /><rect fill="#f58c12" height="1" stroke="none" width="1" x="16" y="18" /><rect fill="#fc9012" height="1" stroke="none" width="1" x="17" y="18" /><rect fill="#834d1f" height="1" stroke="none" width="1" x="18" y="18" /><rect fill="#d47a16" height="1" stroke="none" width="1" x="19" y="18" /><rect fill="#ff9211" height="1" stroke="none" width="1" x="20" y="18" /><rect fill="#8a511e" height="1" stroke="none" width="1" x="21" y="18" /><rect fill="#cf7717" height="1" stroke="none" width="1" x="22" y="18" /><rect fill="#b86710" height="1" stroke="none" width="1" x="23" y="18" /><rect fill="#a6a2aa" height="1" stroke="none" width="1" x="24" y="18" /><rect fill="#9e979e" height="1" stroke="none" width="1" x="5" y="19" /><rect fill="#bf690c" height="1" stroke="none" width="1" x="6" y="19" /><rect fill="#ff9311" height="1" stroke="none" width="1" x="7" y="19" /><rect fill="#fb8f12" height="1" stroke="none" width="1" x="8" y="19" /><rect fill="#fb8f11" height="1" stroke="none" width="1" x="9" y="19" /><rect fill="#fb8f11" height="1" stroke="none" width="1" x="10" y="19" /><rect fill="#fb8f11" height="1" stroke="none" width="1" x="11" y="19" /><rect fill="#fb8f11" height="1" stroke="none" width="1" x="12" y="19" /><rect fill="#fb8f11" height="1" stroke="none" width="1" x="13" y="19" /><rect fill="#fb8f11" height="1" stroke="none" width="1" x="14" y="19" /><rect fill="#fb8f11" height="1" stroke="none" width="1" x="15" y="19" /><rect fill="#fe9111" height="1" stroke="none" width="1" x="16" y="19" /><rect fill="#dd7f15" height="1" stroke="none" width="1" x="17" y="19" /><rect fill="#7f4b1f" height="1" stroke="none" width="1" x="18" y="19" /><rect fill="#fc9012" height="1" stroke="none" width="1" x="19" y="19" /><rect fill="#ff9211" height="1" stroke="none" width="1" x="20" y="19" /><rect fill="#d27916" height="1" stroke="none" width="1" x="21" y="19" /><rect fill="#8a511e" height="1" stroke="none" width="1" x="22" y="19" /><rect fill="#bf690c" height="1" stroke="none" width="1" x="23" y="19" /><rect fill="#9c959c" height="1" stroke="none" width="1" x="24" y="19" /><rect fill="#c8c6cc" height="1" stroke="none" width="1" x="5" y="20" /><rect fill="#835129" height="1" stroke="none" width="1" x="6" y="20" /><rect fill="#be6a10" height="1" stroke="none" width="1" x="7" y="20" /><rect fill="#bd6912" height="1" stroke="none" width="1" x="8" y="20" /><rect fill="#bc6912" height="1" stroke="none" width="1" x="9" y="20" /><rect fill="#bc6912" height="1" stroke="none" width="1" x="10" y="20" /><rect fill="#bd6912" height="1" stroke="none" width="1" x="11" y="20" /><rect fill="#bc6912" height="1" stroke="none" width="1" x="12" y="20" /><rect fill="#bd6912" height="1" stroke="none" width="1" x="13" y="20" /><rect fill="#bd6912" height="1" stroke="none" width="1" x="14" y="20" /><rect fill="#bd6912" height="1" stroke="none" width="1" x="15" y="20" /><rect fill="#c26c11" height="1" stroke="none" width="1" x="16" y="20" /><rect fill="#784319" height="1" stroke="none" width="1" x="17" y="20" /><rect fill="#884d18" height="1" stroke="none" width="1" x="18" y="20" /><rect fill="#c26c12" height="1" stroke="none" width="1" x="19" y="20" /><rect fill="#bd6912" height="1" stroke="none" width="1" x="20" y="20" /><rect fill="#c16c12" height="1" stroke="none" width="1" x="21" y="20" /><rect fill="#65381a" height="1" stroke="none" width="1" x="22" y="20" /><rect fill="#68422b" height="1" stroke="none" width="1" x="23" y="20" /><rect fill="#c9c6ca" height="1" stroke="none" width="1" x="24" y="20" /><rect fill="#dcdce1" height="1" stroke="none" width="1" x="6" y="21" /><rect fill="#bab6bc" height="1" stroke="none" width="1" x="7" y="21" /><rect fill="#bab6bb" height="1" stroke="none" width="1" x="8" y="21" /><rect fill="#bab6bc" height="1" stroke="none" width="1" x="9" y="21" /><rect fill="#bab6bc" height="1" stroke="none" width="1" x="10" y="21" /><rect fill="#bab6bc" height="1" stroke="none" width="1" x="11" y="21" /><rect fill="#bab6bc" height="1" stroke="none" width="1" x="12" y="21" /><rect fill="#bab6bc" height="1" stroke="none" width="1" x="13" y="21" /><rect fill="#bab6bc" height="1" stroke="none" width="1" x="14" y="21" /><rect fill="#bab6bb" height="1" stroke="none" width="1" x="15" y="21" /><rect fill="#bab6bb" height="1" stroke="none" width="1" x="16" y="21" /><rect fill="#bab6bc" height="1" stroke="none" width="1" x="17" y="21" /><rect fill="#bcb7bb" height="1" stroke="none" width="1" x="18" y="21" /><rect fill="#bab6bc" height="1" stroke="none" width="1" x="19" y="21" /><rect fill="#bab6bc" height="1" stroke="none" width="1" x="20" y="21" /><rect fill="#bab6bb" height="1" stroke="none" width="1" x="21" y="21" /><rect fill="#bcb7bb" height="1" stroke="none" width="1" x="22" y="21" /><rect fill="#dbdbe0" height="1" stroke="none" width="1" x="23" y="21" /></svg>